STARTFONT 2.1
COMMENT "$XConsortium: us6x13.bdf /main/2 1996/10/29 18:48:46 drk $"
COMMENT "Hand-pixeled glyphs created with modified X Font Editor (Xfed)"
FONT -HP-HP User-Medium-R-Normal-Serif-10-100-72-72-M-60-ISO8859-1
SIZE 10 72 72 
FONTBOUNDINGBOX 6 13 0 -3
STARTPROPERTIES 25
COMMENT "Begin X Logical Font Description (XLFD) Version 1.5"
COPYRIGHT "(c) Copyright 1994, Hewlett Packard Company"
NOTICE "Created by the User Interaction Design Group, July 1994."
NOTICE "Hewlett Packard Company, 3000 Hanover St., Palo Alto, CA 94303, USA"
FONTNAME_REGISTRY ""
FOUNDRY "HP"
FAMILY_NAME "HP User"
WEIGHT_NAME "Medium"
SLANT "R"
ADD_STYLE_NAME "Serif"
SETWIDTH_NAME "Normal"
PIXEL_SIZE 10
POINT_SIZE 100
RESOLUTION_X 72
RESOLUTION_Y 72
SPACING "M"
AVERAGE_WIDTH 60
CHARSET_REGISTRY "ISO8859"
CHARSET_ENCODING "1"
COMMENT "End X Logical Font Description (XLFD)"
CHARSET_COLLECTIONS "ISO8859-1"
FULL_NAME "HP User6x13"
CAP_HEIGHT 8
X_HEIGHT 6
FONT_ASCENT 10
FONT_DESCENT 3
DEFAULT_CHAR 32
COMMENT "End of Font Properties"
ENDPROPERTIES
CHARS 223
STARTCHAR Null
ENCODING 0
SWIDTH 600 0
DWIDTH 6 0
BBX 6 13 0 -3
BITMAP
00
90
d0
b0
90
90
00
48
48
48
48
30
00
ENDCHAR
STARTCHAR StartOfHeading
ENCODING 1
SWIDTH 600 0
DWIDTH 6 0
BBX 6 13 0 -3
BITMAP
00
70
80
60
10
e0
00
48
48
78
48
48
00
ENDCHAR
STARTCHAR StartOfText
ENCODING 2
SWIDTH 600 0
DWIDTH 6 0
BBX 6 13 0 -3
BITMAP
00
70
80
60
10
e0
00
88
50
20
50
88
00
ENDCHAR
STARTCHAR EndOfText
ENCODING 3
SWIDTH 600 0
DWIDTH 6 0
BBX 6 13 0 -3
BITMAP
00
f0
80
e0
80
f0
00
88
50
20
50
88
00
ENDCHAR
STARTCHAR EndOfTransmit
ENCODING 4
SWIDTH 600 0
DWIDTH 6 0
BBX 6 13 0 -3
BITMAP
00
f0
80
e0
80
f0
00
f8
20
20
20
20
00
ENDCHAR
STARTCHAR Enquiry
ENCODING 5
SWIDTH 600 0
DWIDTH 6 0
BBX 6 13 0 -3
BITMAP
00
f0
80
e0
80
f0
00
70
88
88
a8
70
10
ENDCHAR
STARTCHAR Acknowledge
ENCODING 6
SWIDTH 600 0
DWIDTH 6 0
BBX 6 13 0 -3
BITMAP
00
60
90
f0
90
90
00
48
50
60
50
48
00
ENDCHAR
STARTCHAR Bell
ENCODING 7
SWIDTH 600 0
DWIDTH 6 0
BBX 6 13 0 -3
BITMAP
00
30
48
48
48
48
48
84
fc
10
18
00
00
ENDCHAR
STARTCHAR BackSpace
ENCODING 8
SWIDTH 600 0
DWIDTH 6 0
BBX 6 13 0 -3
BITMAP
00
e0
90
e0
90
e0
00
38
40
30
08
70
00
ENDCHAR
STARTCHAR HorizontalTab
ENCODING 9
SWIDTH 600 0
DWIDTH 6 0
BBX 6 13 0 -3
BITMAP
00
90
90
f0
90
90
00
f8
20
20
20
20
00
ENDCHAR
STARTCHAR LineFeed
ENCODING 10
SWIDTH 600 0
DWIDTH 6 0
BBX 6 13 0 -3
BITMAP
00
80
80
80
80
f0
00
78
40
70
40
40
00
ENDCHAR
STARTCHAR VerticalTab
ENCODING 11
SWIDTH 600 0
DWIDTH 6 0
BBX 6 13 0 -3
BITMAP
00
88
88
50
50
20
20
00
f8
20
20
20
20
ENDCHAR
STARTCHAR FormFeed
ENCODING 12
SWIDTH 600 0
DWIDTH 6 0
BBX 6 13 0 -3
BITMAP
00
f0
80
e0
80
80
00
78
40
70
40
40
00
ENDCHAR
STARTCHAR CarriageReturn
ENCODING 13
SWIDTH 600 0
DWIDTH 6 0
BBX 6 13 0 -3
BITMAP
00
60
90
80
90
60
00
70
48
70
50
48
00
ENDCHAR
STARTCHAR ShiftOut
ENCODING 14
SWIDTH 600 0
DWIDTH 6 0
BBX 6 13 0 -3
BITMAP
00
70
80
60
10
e0
00
30
48
48
48
30
00
ENDCHAR
STARTCHAR ShiftIn
ENCODING 15
SWIDTH 600 0
DWIDTH 6 0
BBX 6 13 0 -3
BITMAP
00
70
80
60
10
e0
00
38
10
10
10
38
00
ENDCHAR
STARTCHAR DataLinkEscape
ENCODING 16
SWIDTH 600 0
DWIDTH 6 0
BBX 6 13 0 -3
BITMAP
00
e0
90
90
90
e0
00
40
40
40
40
78
00
ENDCHAR
STARTCHAR DevCtrl1orXon
ENCODING 17
SWIDTH 600 0
DWIDTH 6 0
BBX 6 13 0 -3
BITMAP
00
e0
90
90
90
e0
00
10
30
10
10
38
00
ENDCHAR
STARTCHAR DeviceControl2
ENCODING 18
SWIDTH 600 0
DWIDTH 6 0
BBX 6 13 0 -3
BITMAP
00
e0
90
90
90
e0
30
48
08
30
40
78
00
ENDCHAR
STARTCHAR DevCtrl3orXoff
ENCODING 19
SWIDTH 600 0
DWIDTH 6 0
BBX 6 13 0 -3
BITMAP
00
e0
90
90
90
e0
00
70
08
30
08
70
00
ENDCHAR
STARTCHAR DeviceControl4
ENCODING 20
SWIDTH 600 0
DWIDTH 6 0
BBX 6 13 0 -3
BITMAP
00
e0
90
90
90
e0
10
30
50
f8
10
10
00
ENDCHAR
STARTCHAR NegAcknowledge
ENCODING 21
SWIDTH 600 0
DWIDTH 6 0
BBX 6 13 0 -3
BITMAP
00
90
d0
b0
90
90
00
48
50
60
50
48
00
ENDCHAR
STARTCHAR SynchronusIdle
ENCODING 22
SWIDTH 600 0
DWIDTH 6 0
BBX 6 13 0 -3
BITMAP
00
70
80
60
10
e0
00
88
50
20
20
20
00
ENDCHAR
STARTCHAR EndTransmit
ENCODING 23
SWIDTH 600 0
DWIDTH 6 0
BBX 6 13 0 -3
BITMAP
00
f0
80
e0
80
f0
00
70
48
70
48
70
00
ENDCHAR
STARTCHAR Cancel
ENCODING 24
SWIDTH 600 0
DWIDTH 6 0
BBX 6 13 0 -3
BITMAP
00
70
80
80
80
70
00
48
68
78
58
48
00
ENDCHAR
STARTCHAR EndOfMedium
ENCODING 25
SWIDTH 600 0
DWIDTH 6 0
BBX 6 13 0 -3
BITMAP
00
f0
80
e0
80
f0
00
88
d8
a8
88
88
00
ENDCHAR
STARTCHAR Substitute
ENCODING 26
SWIDTH 600 0
DWIDTH 6 0
BBX 6 13 0 -3
BITMAP
00
70
80
60
10
e0
00
70
48
70
48
70
00
ENDCHAR
STARTCHAR Escape
ENCODING 27
SWIDTH 600 0
DWIDTH 6 0
BBX 6 13 0 -3
BITMAP
00
f0
80
e0
80
f0
00
38
40
40
40
38
00
ENDCHAR
STARTCHAR FileSeparator
ENCODING 28
SWIDTH 600 0
DWIDTH 6 0
BBX 6 13 0 -3
BITMAP
00
f0
80
e0
80
80
00
38
40
30
08
70
00
ENDCHAR
STARTCHAR GroupSeparator
ENCODING 29
SWIDTH 600 0
DWIDTH 6 0
BBX 6 13 0 -3
BITMAP
00
70
80
b0
90
70
00
38
40
30
08
70
00
ENDCHAR
STARTCHAR RecordSeparatr
ENCODING 30
SWIDTH 600 0
DWIDTH 6 0
BBX 6 13 0 -3
BITMAP
00
e0
90
e0
a0
90
00
38
40
30
08
70
00
ENDCHAR
STARTCHAR UnitSeparator
ENCODING 31
SWIDTH 600 0
DWIDTH 6 0
BBX 6 13 0 -3
BITMAP
00
90
90
90
90
60
00
38
40
30
08
70
00
ENDCHAR
STARTCHAR PrintableSpace
ENCODING 32
SWIDTH 600 0
DWIDTH 6 0
BBX 6 13 0 -3
BITMAP
00
00
00
00
00
00
00
00
00
00
00
00
00
ENDCHAR
STARTCHAR Exclamation
ENCODING 33
SWIDTH 600 0
DWIDTH 6 0
BBX 2 13 2 -3
BITMAP
00
c0
c0
c0
c0
c0
c0
c0
00
c0
c0
00
00
ENDCHAR
STARTCHAR NeutrlDblQuote
ENCODING 34
SWIDTH 600 0
DWIDTH 6 0
BBX 3 13 2 -3
BITMAP
00
a0
a0
a0
a0
00
00
00
00
00
00
00
00
ENDCHAR
STARTCHAR NumberSign
ENCODING 35
SWIDTH 600 0
DWIDTH 6 0
BBX 5 13 1 -3
BITMAP
00
50
50
50
f8
50
50
f8
50
50
50
00
00
ENDCHAR
STARTCHAR DollarSign
ENCODING 36
SWIDTH 600 0
DWIDTH 6 0
BBX 5 13 1 -3
BITMAP
20
20
78
88
80
60
30
08
88
f0
20
20
00
ENDCHAR
STARTCHAR PerCentSign
ENCODING 37
SWIDTH 600 0
DWIDTH 6 0
BBX 6 13 0 -3
BITMAP
00
64
94
98
68
10
20
58
64
a4
98
00
00
ENDCHAR
STARTCHAR Ampersand
ENCODING 38
SWIDTH 600 0
DWIDTH 6 0
BBX 5 13 1 -3
BITMAP
00
60
90
90
50
60
a8
90
90
68
00
00
00
ENDCHAR
STARTCHAR SingleCloseQut
ENCODING 39
SWIDTH 600 0
DWIDTH 6 0
BBX 3 13 1 -3
BITMAP
00
60
60
20
40
80
00
00
00
00
00
00
00
ENDCHAR
STARTCHAR OpenParen
ENCODING 40
SWIDTH 600 0
DWIDTH 6 0
BBX 4 13 2 -3
BITMAP
10
20
60
40
c0
c0
c0
c0
40
60
20
10
00
ENDCHAR
STARTCHAR CloseParen
ENCODING 41
SWIDTH 600 0
DWIDTH 6 0
BBX 4 13 1 -3
BITMAP
80
40
60
20
30
30
30
30
20
60
40
80
00
ENDCHAR
STARTCHAR Asterisk
ENCODING 42
SWIDTH 600 0
DWIDTH 6 0
BBX 5 13 1 -3
BITMAP
00
00
00
00
20
a8
70
a8
20
00
00
00
00
ENDCHAR
STARTCHAR PlusSign
ENCODING 43
SWIDTH 600 0
DWIDTH 6 0
BBX 5 13 1 -3
BITMAP
00
00
00
00
20
20
f8
20
20
00
00
00
00
ENDCHAR
STARTCHAR Comma
ENCODING 44
SWIDTH 600 0
DWIDTH 6 0
BBX 3 13 1 -3
BITMAP
00
00
00
00
00
00
00
00
60
60
20
40
80
ENDCHAR
STARTCHAR Hyphen
ENCODING 45
SWIDTH 600 0
DWIDTH 6 0
BBX 5 13 1 -3
BITMAP
00
00
00
00
00
00
f8
00
00
00
00
00
00
ENDCHAR
STARTCHAR Period
ENCODING 46
SWIDTH 600 0
DWIDTH 6 0
BBX 2 13 2 -3
BITMAP
00
00
00
00
00
00
00
00
c0
c0
00
00
00
ENDCHAR
STARTCHAR Slash
ENCODING 47
SWIDTH 600 0
DWIDTH 6 0
BBX 6 13 0 -3
BITMAP
04
04
08
08
10
10
20
20
40
40
80
80
00
ENDCHAR
STARTCHAR Zero
ENCODING 48
SWIDTH 600 0
DWIDTH 6 0
BBX 5 13 1 -3
BITMAP
00
00
70
88
88
a8
88
88
88
70
00
00
00
ENDCHAR
STARTCHAR One
ENCODING 49
SWIDTH 600 0
DWIDTH 6 0
BBX 3 13 1 -3
BITMAP
00
00
20
60
a0
20
20
20
20
20
00
00
00
ENDCHAR
STARTCHAR Two
ENCODING 50
SWIDTH 600 0
DWIDTH 6 0
BBX 5 13 1 -3
BITMAP
00
00
70
88
08
10
20
40
88
f8
00
00
00
ENDCHAR
STARTCHAR Three
ENCODING 51
SWIDTH 600 0
DWIDTH 6 0
BBX 5 13 1 -3
BITMAP
00
00
70
88
08
30
08
08
88
70
00
00
00
ENDCHAR
STARTCHAR Four
ENCODING 52
SWIDTH 600 0
DWIDTH 6 0
BBX 5 13 1 -3
BITMAP
00
20
20
40
40
90
90
f8
10
10
00
00
00
ENDCHAR
STARTCHAR Five
ENCODING 53
SWIDTH 600 0
DWIDTH 6 0
BBX 5 13 1 -3
BITMAP
00
00
78
40
40
70
08
08
88
70
00
00
00
ENDCHAR
STARTCHAR Six
ENCODING 54
SWIDTH 600 0
DWIDTH 6 0
BBX 5 13 1 -3
BITMAP
00
00
30
40
80
b0
c8
88
88
70
00
00
00
ENDCHAR
STARTCHAR Seven
ENCODING 55
SWIDTH 600 0
DWIDTH 6 0
BBX 5 13 1 -3
BITMAP
00
00
f8
08
10
10
20
20
40
40
00
00
00
ENDCHAR
STARTCHAR Eight
ENCODING 56
SWIDTH 600 0
DWIDTH 6 0
BBX 5 13 1 -3
BITMAP
00
00
70
88
88
70
88
88
88
70
00
00
00
ENDCHAR
STARTCHAR Nine
ENCODING 57
SWIDTH 600 0
DWIDTH 6 0
BBX 5 13 1 -3
BITMAP
00
00
70
88
88
98
68
08
10
60
00
00
00
ENDCHAR
STARTCHAR Colon
ENCODING 58
SWIDTH 600 0
DWIDTH 6 0
BBX 2 13 2 -3
BITMAP
00
00
00
00
c0
c0
00
00
c0
c0
00
00
00
ENDCHAR
STARTCHAR Simicolon
ENCODING 59
SWIDTH 600 0
DWIDTH 6 0
BBX 3 13 1 -3
BITMAP
00
00
00
00
60
60
00
00
60
60
20
40
80
ENDCHAR
STARTCHAR LessThanSign
ENCODING 60
SWIDTH 600 0
DWIDTH 6 0
BBX 5 13 1 -3
BITMAP
00
00
00
00
18
70
c0
70
18
00
00
00
00
ENDCHAR
STARTCHAR EqualsSign
ENCODING 61
SWIDTH 600 0
DWIDTH 6 0
BBX 5 13 1 -3
BITMAP
00
00
00
00
00
f8
00
f8
00
00
00
00
00
ENDCHAR
STARTCHAR GreatrThanSign
ENCODING 62
SWIDTH 600 0
DWIDTH 6 0
BBX 5 13 1 -3
BITMAP
00
00
00
00
c0
70
18
70
c0
00
00
00
00
ENDCHAR
STARTCHAR QuestionMark
ENCODING 63
SWIDTH 600 0
DWIDTH 6 0
BBX 5 13 1 -3
BITMAP
00
70
d8
98
18
30
60
60
00
60
60
00
00
ENDCHAR
STARTCHAR CommerclAtSign
ENCODING 64
SWIDTH 600 0
DWIDTH 6 0
BBX 5 13 1 -3
BITMAP
00
30
48
98
a8
a8
a8
98
80
48
30
00
00
ENDCHAR
STARTCHAR A
ENCODING 65
SWIDTH 600 0
DWIDTH 6 0
BBX 5 13 1 -3
BITMAP
00
00
20
20
50
50
88
f8
88
88
00
00
00
ENDCHAR
STARTCHAR B
ENCODING 66
SWIDTH 600 0
DWIDTH 6 0
BBX 5 13 1 -3
BITMAP
00
00
f0
48
48
70
48
48
48
f0
00
00
00
ENDCHAR
STARTCHAR C
ENCODING 67
SWIDTH 600 0
DWIDTH 6 0
BBX 5 13 1 -3
BITMAP
00
00
38
48
80
80
80
80
48
30
00
00
00
ENDCHAR
STARTCHAR D
ENCODING 68
SWIDTH 600 0
DWIDTH 6 0
BBX 5 13 1 -3
BITMAP
00
00
e0
50
48
48
48
48
50
e0
00
00
00
ENDCHAR
STARTCHAR E
ENCODING 69
SWIDTH 600 0
DWIDTH 6 0
BBX 5 13 1 -3
BITMAP
00
00
f8
80
80
f0
80
80
80
f8
00
00
00
ENDCHAR
STARTCHAR F
ENCODING 70
SWIDTH 600 0
DWIDTH 6 0
BBX 5 13 1 -3
BITMAP
00
00
f8
80
80
f0
80
80
80
80
00
00
00
ENDCHAR
STARTCHAR G
ENCODING 71
SWIDTH 600 0
DWIDTH 6 0
BBX 5 13 1 -3
BITMAP
00
00
38
48
80
80
98
88
48
38
00
00
00
ENDCHAR
STARTCHAR H
ENCODING 72
SWIDTH 600 0
DWIDTH 6 0
BBX 5 13 1 -3
BITMAP
00
00
88
88
88
f8
88
88
88
88
00
00
00
ENDCHAR
STARTCHAR I
ENCODING 73
SWIDTH 600 0
DWIDTH 6 0
BBX 5 13 1 -3
BITMAP
00
00
f8
20
20
20
20
20
20
f8
00
00
00
ENDCHAR
STARTCHAR J
ENCODING 74
SWIDTH 600 0
DWIDTH 6 0
BBX 5 13 1 -3
BITMAP
00
00
78
10
10
10
10
90
90
60
00
00
00
ENDCHAR
STARTCHAR K
ENCODING 75
SWIDTH 600 0
DWIDTH 6 0
BBX 5 13 1 -3
BITMAP
00
00
88
90
a0
e0
d0
90
88
88
00
00
00
ENDCHAR
STARTCHAR L
ENCODING 76
SWIDTH 600 0
DWIDTH 6 0
BBX 5 13 1 -3
BITMAP
00
00
80
80
80
80
80
80
80
f8
00
00
00
ENDCHAR
STARTCHAR M
ENCODING 77
SWIDTH 600 0
DWIDTH 6 0
BBX 5 13 1 -3
BITMAP
00
00
88
d8
d8
a8
a8
88
88
88
00
00
00
ENDCHAR
STARTCHAR N
ENCODING 78
SWIDTH 600 0
DWIDTH 6 0
BBX 5 13 1 -3
BITMAP
00
00
88
c8
c8
a8
a8
98
98
88
00
00
00
ENDCHAR
STARTCHAR O
ENCODING 79
SWIDTH 600 0
DWIDTH 6 0
BBX 5 13 1 -3
BITMAP
00
00
70
88
88
88
88
88
88
70
00
00
00
ENDCHAR
STARTCHAR P
ENCODING 80
SWIDTH 600 0
DWIDTH 6 0
BBX 5 13 1 -3
BITMAP
00
00
f0
88
88
88
f0
80
80
80
00
00
00
ENDCHAR
STARTCHAR Q
ENCODING 81
SWIDTH 600 0
DWIDTH 6 0
BBX 5 13 1 -3
BITMAP
00
00
70
88
88
88
88
88
a8
70
10
08
00
ENDCHAR
STARTCHAR R
ENCODING 82
SWIDTH 600 0
DWIDTH 6 0
BBX 5 13 1 -3
BITMAP
00
00
f0
88
88
88
f0
90
88
88
00
00
00
ENDCHAR
STARTCHAR S
ENCODING 83
SWIDTH 600 0
DWIDTH 6 0
BBX 5 13 1 -3
BITMAP
00
00
78
88
80
60
30
08
88
f0
00
00
00
ENDCHAR
STARTCHAR T
ENCODING 84
SWIDTH 600 0
DWIDTH 6 0
BBX 5 13 1 -3
BITMAP
00
00
f8
20
20
20
20
20
20
20
00
00
00
ENDCHAR
STARTCHAR U
ENCODING 85
SWIDTH 600 0
DWIDTH 6 0
BBX 5 13 1 -3
BITMAP
00
00
88
88
88
88
88
88
88
70
00
00
00
ENDCHAR
STARTCHAR V
ENCODING 86
SWIDTH 600 0
DWIDTH 6 0
BBX 5 13 1 -3
BITMAP
00
00
88
88
50
50
50
20
20
20
00
00
00
ENDCHAR
STARTCHAR W
ENCODING 87
SWIDTH 600 0
DWIDTH 6 0
BBX 5 13 1 -3
BITMAP
00
00
88
88
88
a8
a8
50
50
50
00
00
00
ENDCHAR
STARTCHAR X
ENCODING 88
SWIDTH 600 0
DWIDTH 6 0
BBX 5 13 1 -3
BITMAP
00
00
88
88
50
60
30
50
88
88
00
00
00
ENDCHAR
STARTCHAR Y
ENCODING 89
SWIDTH 600 0
DWIDTH 6 0
BBX 5 13 1 -3
BITMAP
00
00
88
88
50
50
20
20
20
70
00
00
00
ENDCHAR
STARTCHAR Z
ENCODING 90
SWIDTH 600 0
DWIDTH 6 0
BBX 5 13 1 -3
BITMAP
00
00
f8
88
10
20
40
80
88
f8
00
00
00
ENDCHAR
STARTCHAR OpenBracket
ENCODING 91
SWIDTH 600 0
DWIDTH 6 0
BBX 4 13 2 -3
BITMAP
00
f0
c0
c0
c0
c0
c0
c0
c0
c0
f0
00
00
ENDCHAR
STARTCHAR BackSlash
ENCODING 92
SWIDTH 600 0
DWIDTH 6 0
BBX 6 13 0 -3
BITMAP
80
80
40
40
20
20
10
10
08
08
04
04
00
ENDCHAR
STARTCHAR CloseBracket
ENCODING 93
SWIDTH 600 0
DWIDTH 6 0
BBX 4 13 1 -3
BITMAP
00
f0
30
30
30
30
30
30
30
30
f0
00
00
ENDCHAR
STARTCHAR Circumflex
ENCODING 94
SWIDTH 600 0
DWIDTH 6 0
BBX 3 13 1 -3
BITMAP
00
00
40
a0
00
00
00
00
00
00
00
00
00
ENDCHAR
STARTCHAR Underscore
ENCODING 95
SWIDTH 600 0
DWIDTH 6 0
BBX 6 13 0 -3
BITMAP
00
00
00
00
00
00
00
00
00
00
fc
00
00
ENDCHAR
STARTCHAR SingleOpenQuot
ENCODING 96
SWIDTH 600 0
DWIDTH 6 0
BBX 3 13 2 -3
BITMAP
00
20
40
80
c0
c0
00
00
00
00
00
00
00
ENDCHAR
STARTCHAR a
ENCODING 97
SWIDTH 600 0
DWIDTH 6 0
BBX 5 13 1 -3
BITMAP
00
00
00
00
70
08
78
88
98
68
00
00
00
ENDCHAR
STARTCHAR b
ENCODING 98
SWIDTH 600 0
DWIDTH 6 0
BBX 5 13 1 -3
BITMAP
00
00
80
80
b0
c8
88
88
c8
b0
00
00
00
ENDCHAR
STARTCHAR c
ENCODING 99
SWIDTH 600 0
DWIDTH 6 0
BBX 5 13 1 -3
BITMAP
00
00
00
00
78
88
80
80
88
70
00
00
00
ENDCHAR
STARTCHAR d
ENCODING 100
SWIDTH 600 0
DWIDTH 6 0
BBX 5 13 1 -3
BITMAP
00
00
08
08
68
98
88
88
98
68
00
00
00
ENDCHAR
STARTCHAR e
ENCODING 101
SWIDTH 600 0
DWIDTH 6 0
BBX 5 13 1 -3
BITMAP
00
00
00
00
70
88
f8
80
88
70
00
00
00
ENDCHAR
STARTCHAR f
ENCODING 102
SWIDTH 600 0
DWIDTH 6 0
BBX 5 13 1 -3
BITMAP
00
00
18
20
20
f8
20
20
20
f8
00
00
00
ENDCHAR
STARTCHAR g
ENCODING 103
SWIDTH 600 0
DWIDTH 6 0
BBX 5 13 1 -3
BITMAP
00
00
00
00
68
90
90
60
80
70
88
88
70
ENDCHAR
STARTCHAR h
ENCODING 104
SWIDTH 600 0
DWIDTH 6 0
BBX 5 13 1 -3
BITMAP
00
00
80
80
b0
c8
88
88
88
88
00
00
00
ENDCHAR
STARTCHAR i
ENCODING 105
SWIDTH 600 0
DWIDTH 6 0
BBX 5 13 1 -3
BITMAP
00
00
20
00
e0
20
20
20
20
f8
00
00
00
ENDCHAR
STARTCHAR j
ENCODING 106
SWIDTH 600 0
DWIDTH 6 0
BBX 4 13 1 -3
BITMAP
00
00
10
00
70
10
10
10
10
10
90
60
00
ENDCHAR
STARTCHAR k
ENCODING 107
SWIDTH 600 0
DWIDTH 6 0
BBX 5 13 1 -3
BITMAP
00
00
80
80
98
90
e0
a0
90
98
00
00
00
ENDCHAR
STARTCHAR l
ENCODING 108
SWIDTH 600 0
DWIDTH 6 0
BBX 5 13 1 -3
BITMAP
00
00
e0
20
20
20
20
20
20
f8
00
00
00
ENDCHAR
STARTCHAR m
ENCODING 109
SWIDTH 600 0
DWIDTH 6 0
BBX 5 13 1 -3
BITMAP
00
00
00
00
d0
a8
a8
a8
a8
88
00
00
00
ENDCHAR
STARTCHAR n
ENCODING 110
SWIDTH 600 0
DWIDTH 6 0
BBX 5 13 1 -3
BITMAP
00
00
00
00
b0
c8
88
88
88
88
00
00
00
ENDCHAR
STARTCHAR o
ENCODING 111
SWIDTH 600 0
DWIDTH 6 0
BBX 5 13 1 -3
BITMAP
00
00
00
00
70
88
88
88
88
70
00
00
00
ENDCHAR
STARTCHAR p
ENCODING 112
SWIDTH 600 0
DWIDTH 6 0
BBX 5 13 1 -3
BITMAP
00
00
00
00
b0
c8
88
88
c8
b0
80
80
00
ENDCHAR
STARTCHAR q
ENCODING 113
SWIDTH 600 0
DWIDTH 6 0
BBX 5 13 1 -3
BITMAP
00
00
00
00
68
98
88
88
98
68
08
08
00
ENDCHAR
STARTCHAR r
ENCODING 114
SWIDTH 600 0
DWIDTH 6 0
BBX 4 13 1 -3
BITMAP
00
00
00
00
b0
d0
80
80
80
80
00
00
00
ENDCHAR
STARTCHAR s
ENCODING 115
SWIDTH 600 0
DWIDTH 6 0
BBX 5 13 1 -3
BITMAP
00
00
00
00
78
80
70
08
88
f0
00
00
00
ENDCHAR
STARTCHAR t
ENCODING 116
SWIDTH 600 0
DWIDTH 6 0
BBX 5 13 1 -3
BITMAP
00
00
00
40
40
f0
40
40
48
30
00
00
00
ENDCHAR
STARTCHAR u
ENCODING 117
SWIDTH 600 0
DWIDTH 6 0
BBX 5 13 1 -3
BITMAP
00
00
00
00
88
88
88
88
98
68
00
00
00
ENDCHAR
STARTCHAR v
ENCODING 118
SWIDTH 600 0
DWIDTH 6 0
BBX 5 13 1 -3
BITMAP
00
00
00
00
88
88
50
50
20
20
00
00
00
ENDCHAR
STARTCHAR w
ENCODING 119
SWIDTH 600 0
DWIDTH 6 0
BBX 5 13 1 -3
BITMAP
00
00
00
00
88
88
a8
a8
50
50
00
00
00
ENDCHAR
STARTCHAR x
ENCODING 120
SWIDTH 600 0
DWIDTH 6 0
BBX 5 13 1 -3
BITMAP
00
00
00
00
d8
50
20
20
50
d8
00
00
00
ENDCHAR
STARTCHAR y
ENCODING 121
SWIDTH 600 0
DWIDTH 6 0
BBX 5 13 1 -3
BITMAP
00
00
00
00
88
88
50
50
30
20
a0
c0
00
ENDCHAR
STARTCHAR z
ENCODING 122
SWIDTH 600 0
DWIDTH 6 0
BBX 5 13 1 -3
BITMAP
00
00
00
00
f8
08
10
20
40
f8
00
00
00
ENDCHAR
STARTCHAR OpenBrace
ENCODING 123
SWIDTH 600 0
DWIDTH 6 0
BBX 5 13 1 -3
BITMAP
00
18
30
30
30
e0
20
30
30
30
18
00
00
ENDCHAR
STARTCHAR LongVertMark
ENCODING 124
SWIDTH 600 0
DWIDTH 6 0
BBX 1 13 3 -3
BITMAP
00
80
80
80
80
80
80
80
80
80
80
00
00
ENDCHAR
STARTCHAR CloseBrace
ENCODING 125
SWIDTH 600 0
DWIDTH 6 0
BBX 5 13 1 -3
BITMAP
00
c0
60
60
60
38
20
60
60
60
c0
00
00
ENDCHAR
STARTCHAR OneWavyLine
ENCODING 126
SWIDTH 600 0
DWIDTH 6 0
BBX 6 13 0 -3
BITMAP
00
00
00
00
20
74
b8
10
00
00
00
00
00
ENDCHAR
STARTCHAR MediumShading
ENCODING 127
SWIDTH 600 0
DWIDTH 6 0
BBX 6 13 0 -3
BITMAP
a8
54
a8
54
a8
54
a8
54
a8
54
a8
54
a8
ENDCHAR
STARTCHAR InvExclamation
ENCODING 161
SWIDTH 600 0
DWIDTH 6 0
BBX 2 13 2 -3
BITMAP
00
00
c0
c0
00
c0
c0
c0
c0
c0
c0
c0
00
ENDCHAR
STARTCHAR CentSign
ENCODING 162
SWIDTH 600 0
DWIDTH 6 0
BBX 5 13 1 -3
BITMAP
00
00
20
20
78
88
80
88
70
20
20
00
00
ENDCHAR
STARTCHAR SterlingSign
ENCODING 163
SWIDTH 600 0
DWIDTH 6 0
BBX 5 13 1 -3
BITMAP
00
00
30
48
40
f0
40
f0
40
b8
00
00
00
ENDCHAR
STARTCHAR CurrencySymbol
ENCODING 164
SWIDTH 600 0
DWIDTH 6 0
BBX 6 13 0 -3
BITMAP
00
00
84
78
48
48
78
84
00
00
00
00
00
ENDCHAR
STARTCHAR Yensign
ENCODING 165
SWIDTH 600 0
DWIDTH 6 0
BBX 5 13 1 -3
BITMAP
00
00
88
88
50
f8
20
f8
20
20
00
00
00
ENDCHAR
STARTCHAR BrokenVertMark
ENCODING 166
SWIDTH 600 0
DWIDTH 6 0
BBX 1 13 3 -3
BITMAP
00
80
80
80
80
00
80
80
80
80
80
00
00
ENDCHAR
STARTCHAR SectionMark
ENCODING 167
SWIDTH 600 0
DWIDTH 6 0
BBX 4 13 1 -3
BITMAP
00
70
90
c0
60
b0
90
d0
60
30
90
e0
00
ENDCHAR
STARTCHAR diaeresisAccnt
ENCODING 168
SWIDTH 600 0
DWIDTH 6 0
BBX 6 13 0 -3
BITMAP
00
00
48
48
00
00
00
00
00
00
00
00
00
ENDCHAR
STARTCHAR CopyrightSign
ENCODING 169
SWIDTH 600 0
DWIDTH 6 0
BBX 6 13 0 -3
BITMAP
00
00
78
84
b4
a4
b4
84
78
00
00
00
00
ENDCHAR
STARTCHAR FemaleOrdinal
ENCODING 170
SWIDTH 600 0
DWIDTH 6 0
BBX 5 13 1 -3
BITMAP
00
60
10
70
90
68
00
f8
00
00
00
00
00
ENDCHAR
STARTCHAR DblOpenAnglQut
ENCODING 171
SWIDTH 600 0
DWIDTH 6 0
BBX 6 13 0 -3
BITMAP
00
00
00
00
24
6c
d8
6c
24
00
00
00
00
ENDCHAR
STARTCHAR NotSign
ENCODING 172
SWIDTH 600 0
DWIDTH 6 0
BBX 5 13 1 -3
BITMAP
00
00
00
00
00
00
f8
08
08
00
00
00
00
ENDCHAR
STARTCHAR SoftHyphen
ENCODING 173
SWIDTH 600 0
DWIDTH 6 0
BBX 5 13 1 -3
BITMAP
00
00
00
00
00
00
f8
00
00
00
00
00
00
ENDCHAR
STARTCHAR RegisTradeMark
ENCODING 174
SWIDTH 600 0
DWIDTH 6 0
BBX 6 13 0 -3
BITMAP
00
00
70
88
64
54
64
54
88
70
00
00
00
ENDCHAR
STARTCHAR macronAccent
ENCODING 175
SWIDTH 600 0
DWIDTH 6 0
BBX 4 13 1 -3
BITMAP
00
00
f0
00
00
00
00
00
00
00
00
00
00
ENDCHAR
STARTCHAR DegreeSign
ENCODING 176
SWIDTH 600 0
DWIDTH 6 0
BBX 4 13 1 -3
BITMAP
00
00
60
90
90
60
00
00
00
00
00
00
00
ENDCHAR
STARTCHAR PlusOverMinus
ENCODING 177
SWIDTH 600 0
DWIDTH 6 0
BBX 5 13 1 -3
BITMAP
00
00
20
20
f8
20
20
00
f8
00
00
00
00
ENDCHAR
STARTCHAR SupNumberTwo
ENCODING 178
SWIDTH 600 0
DWIDTH 6 0
BBX 4 13 1 -3
BITMAP
00
00
60
90
10
60
80
f0
00
00
00
00
00
ENDCHAR
STARTCHAR SupNumberThree
ENCODING 179
SWIDTH 600 0
DWIDTH 6 0
BBX 4 13 1 -3
BITMAP
00
00
60
10
60
10
90
60
00
00
00
00
00
ENDCHAR
STARTCHAR acuteAccent
ENCODING 180
SWIDTH 600 0
DWIDTH 6 0
BBX 3 13 2 -3
BITMAP
00
00
60
c0
00
00
00
00
00
00
00
00
00
ENDCHAR
STARTCHAR muGreek
ENCODING 181
SWIDTH 600 0
DWIDTH 6 0
BBX 6 13 0 -3
BITMAP
00
00
00
00
24
24
24
48
48
bc
80
80
00
ENDCHAR
STARTCHAR ParagraphSign
ENCODING 182
SWIDTH 600 0
DWIDTH 6 0
BBX 6 13 0 -3
BITMAP
00
00
6c
e8
e8
e8
68
28
28
28
28
00
00
ENDCHAR
STARTCHAR middleDot
ENCODING 183
SWIDTH 600 0
DWIDTH 6 0
BBX 1 13 3 -3
BITMAP
00
00
00
00
00
80
80
00
00
00
00
00
00
ENDCHAR
STARTCHAR cedilla
ENCODING 184
SWIDTH 600 0
DWIDTH 6 0
BBX 4 13 2 -3
BITMAP
00
00
00
00
00
00
00
00
00
00
20
10
e0
ENDCHAR
STARTCHAR SupNumberOne
ENCODING 185
SWIDTH 600 0
DWIDTH 6 0
BBX 2 13 2 -3
BITMAP
00
00
40
c0
40
40
40
00
00
00
00
00
00
ENDCHAR
STARTCHAR MaleOrdinal
ENCODING 186
SWIDTH 600 0
DWIDTH 6 0
BBX 5 13 1 -3
BITMAP
00
70
88
88
88
70
00
f8
00
00
00
00
00
ENDCHAR
STARTCHAR DblClosAnglQut
ENCODING 187
SWIDTH 600 0
DWIDTH 6 0
BBX 6 13 0 -3
BITMAP
00
00
00
00
90
d8
6c
d8
90
00
00
00
00
ENDCHAR
STARTCHAR FracOneFourth
ENCODING 188
SWIDTH 600 0
DWIDTH 6 0
BBX 6 13 0 -3
BITMAP
00
40
c0
44
48
50
20
48
98
28
7c
08
00
ENDCHAR
STARTCHAR FracOneHalf
ENCODING 189
SWIDTH 600 0
DWIDTH 6 0
BBX 6 13 0 -3
BITMAP
00
40
c0
44
48
50
20
58
a4
08
10
3c
00
ENDCHAR
STARTCHAR FracThreeFour
ENCODING 190
SWIDTH 600 0
DWIDTH 6 0
BBX 6 13 0 -3
BITMAP
00
c0
20
c4
28
d0
20
48
98
28
7c
08
00
ENDCHAR
STARTCHAR InvertQuestion
ENCODING 191
SWIDTH 600 0
DWIDTH 6 0
BBX 5 13 1 -3
BITMAP
00
00
30
30
00
30
30
60
c0
c8
d8
70
00
ENDCHAR
STARTCHAR Agrave
ENCODING 192
SWIDTH 600 0
DWIDTH 6 0
BBX 6 13 0 -3
BITMAP
c0
60
10
10
28
28
44
7c
44
44
00
00
00
ENDCHAR
STARTCHAR Aacute
ENCODING 193
SWIDTH 600 0
DWIDTH 6 0
BBX 5 13 1 -3
BITMAP
18
30
20
20
50
50
88
f8
88
88
00
00
00
ENDCHAR
STARTCHAR Acircumflex
ENCODING 194
SWIDTH 600 0
DWIDTH 6 0
BBX 5 13 1 -3
BITMAP
20
70
a8
20
50
50
88
f8
88
88
00
00
00
ENDCHAR
STARTCHAR Atilde
ENCODING 195
SWIDTH 600 0
DWIDTH 6 0
BBX 5 13 1 -3
BITMAP
68
b0
20
20
50
50
88
f8
88
88
00
00
00
ENDCHAR
STARTCHAR Adiaeresis
ENCODING 196
SWIDTH 600 0
DWIDTH 6 0
BBX 5 13 1 -3
BITMAP
48
48
20
20
50
50
88
f8
88
88
00
00
00
ENDCHAR
STARTCHAR Abolle
ENCODING 197
SWIDTH 600 0
DWIDTH 6 0
BBX 5 13 1 -3
BITMAP
30
48
30
20
50
50
88
f8
88
88
00
00
00
ENDCHAR
STARTCHAR AEdiphthong
ENCODING 198
SWIDTH 600 0
DWIDTH 6 0
BBX 6 13 0 -3
BITMAP
00
00
7c
30
50
5c
70
90
90
9c
00
00
00
ENDCHAR
STARTCHAR Ccedilla
ENCODING 199
SWIDTH 600 0
DWIDTH 6 0
BBX 5 13 1 -3
BITMAP
00
00
38
48
80
80
80
80
48
30
10
08
70
ENDCHAR
STARTCHAR Egrave
ENCODING 200
SWIDTH 600 0
DWIDTH 6 0
BBX 5 13 1 -3
BITMAP
c0
60
00
f8
80
80
f0
80
80
f8
00
00
00
ENDCHAR
STARTCHAR Eacute
ENCODING 201
SWIDTH 600 0
DWIDTH 6 0
BBX 5 13 1 -3
BITMAP
18
30
00
f8
80
80
f0
80
80
f8
00
00
00
ENDCHAR
STARTCHAR Ecircumflex
ENCODING 202
SWIDTH 600 0
DWIDTH 6 0
BBX 5 13 1 -3
BITMAP
60
90
00
f8
80
80
f0
80
80
f8
00
00
00
ENDCHAR
STARTCHAR Ediaeresis
ENCODING 203
SWIDTH 600 0
DWIDTH 6 0
BBX 5 13 1 -3
BITMAP
90
90
00
f8
80
80
f0
80
80
f8
00
00
00
ENDCHAR
STARTCHAR Igrave
ENCODING 204
SWIDTH 600 0
DWIDTH 6 0
BBX 5 13 1 -3
BITMAP
c0
60
00
f8
20
20
20
20
20
f8
00
00
00
ENDCHAR
STARTCHAR Iacute
ENCODING 205
SWIDTH 600 0
DWIDTH 6 0
BBX 5 13 1 -3
BITMAP
18
30
00
f8
20
20
20
20
20
f8
00
00
00
ENDCHAR
STARTCHAR Icircumflex
ENCODING 206
SWIDTH 600 0
DWIDTH 6 0
BBX 5 13 1 -3
BITMAP
30
48
00
f8
20
20
20
20
20
f8
00
00
00
ENDCHAR
STARTCHAR Idiaeresis
ENCODING 207
SWIDTH 600 0
DWIDTH 6 0
BBX 5 13 1 -3
BITMAP
50
50
00
f8
20
20
20
20
20
f8
00
00
00
ENDCHAR
STARTCHAR Eth
ENCODING 208
SWIDTH 600 0
DWIDTH 6 0
BBX 5 13 1 -3
BITMAP
00
00
e0
50
48
e8
48
48
50
e0
00
00
00
ENDCHAR
STARTCHAR Ntilde
ENCODING 209
SWIDTH 600 0
DWIDTH 6 0
BBX 5 13 1 -3
BITMAP
68
b0
00
88
c8
c8
a8
98
98
88
00
00
00
ENDCHAR
STARTCHAR Ograve
ENCODING 210
SWIDTH 600 0
DWIDTH 6 0
BBX 5 13 1 -3
BITMAP
c0
60
00
70
88
88
88
88
88
70
00
00
00
ENDCHAR
STARTCHAR Oacute
ENCODING 211
SWIDTH 600 0
DWIDTH 6 0
BBX 5 13 1 -3
BITMAP
18
30
00
70
88
88
88
88
88
70
00
00
00
ENDCHAR
STARTCHAR Ocircumflex
ENCODING 212
SWIDTH 600 0
DWIDTH 6 0
BBX 5 13 1 -3
BITMAP
30
48
00
70
88
88
88
88
88
70
00
00
00
ENDCHAR
STARTCHAR Otilde
ENCODING 213
SWIDTH 600 0
DWIDTH 6 0
BBX 5 13 1 -3
BITMAP
68
b0
00
70
88
88
88
88
88
70
00
00
00
ENDCHAR
STARTCHAR Odiaeresis
ENCODING 214
SWIDTH 600 0
DWIDTH 6 0
BBX 5 13 1 -3
BITMAP
48
48
00
70
88
88
88
88
88
70
00
00
00
ENDCHAR
STARTCHAR MultiplySign
ENCODING 215
SWIDTH 600 0
DWIDTH 6 0
BBX 5 13 1 -3
BITMAP
00
00
00
00
88
50
20
50
88
00
00
00
00
ENDCHAR
STARTCHAR Ooblique
ENCODING 216
SWIDTH 600 0
DWIDTH 6 0
BBX 5 13 1 -3
BITMAP
00
08
68
90
98
a8
a8
c8
48
b0
80
00
00
ENDCHAR
STARTCHAR Ugrave
ENCODING 217
SWIDTH 600 0
DWIDTH 6 0
BBX 5 13 1 -3
BITMAP
c0
60
00
88
88
88
88
88
88
70
00
00
00
ENDCHAR
STARTCHAR Uacute
ENCODING 218
SWIDTH 600 0
DWIDTH 6 0
BBX 5 13 1 -3
BITMAP
18
30
00
88
88
88
88
88
88
70
00
00
00
ENDCHAR
STARTCHAR Ucircumflex
ENCODING 219
SWIDTH 600 0
DWIDTH 6 0
BBX 5 13 1 -3
BITMAP
30
48
00
88
88
88
88
88
88
70
00
00
00
ENDCHAR
STARTCHAR Udiaeresis
ENCODING 220
SWIDTH 600 0
DWIDTH 6 0
BBX 5 13 1 -3
BITMAP
48
48
00
88
88
88
88
88
88
70
00
00
00
ENDCHAR
STARTCHAR Yacute
ENCODING 221
SWIDTH 600 0
DWIDTH 6 0
BBX 5 13 1 -3
BITMAP
18
30
88
88
50
50
20
20
20
70
00
00
00
ENDCHAR
STARTCHAR Thorn
ENCODING 222
SWIDTH 600 0
DWIDTH 6 0
BBX 5 13 1 -3
BITMAP
00
00
e0
40
70
48
48
70
40
e0
00
00
00
ENDCHAR
STARTCHAR EsZetLigature
ENCODING 223
SWIDTH 600 0
DWIDTH 6 0
BBX 6 13 0 -3
BITMAP
00
00
30
48
48
58
44
44
54
58
40
c0
00
ENDCHAR
STARTCHAR agrave
ENCODING 224
SWIDTH 600 0
DWIDTH 6 0
BBX 5 13 1 -3
BITMAP
00
60
30
00
70
08
78
88
98
68
00
00
00
ENDCHAR
STARTCHAR aacute
ENCODING 225
SWIDTH 600 0
DWIDTH 6 0
BBX 5 13 1 -3
BITMAP
00
18
30
00
70
08
78
88
98
68
00
00
00
ENDCHAR
STARTCHAR acircumflex
ENCODING 226
SWIDTH 600 0
DWIDTH 6 0
BBX 5 13 1 -3
BITMAP
00
30
48
00
70
08
78
88
98
68
00
00
00
ENDCHAR
STARTCHAR atilde
ENCODING 227
SWIDTH 600 0
DWIDTH 6 0
BBX 5 13 1 -3
BITMAP
00
68
b0
00
70
08
78
88
98
68
00
00
00
ENDCHAR
STARTCHAR adiaeresis
ENCODING 228
SWIDTH 600 0
DWIDTH 6 0
BBX 5 13 1 -3
BITMAP
00
48
48
00
70
08
78
88
98
68
00
00
00
ENDCHAR
STARTCHAR abolle
ENCODING 229
SWIDTH 600 0
DWIDTH 6 0
BBX 5 13 1 -3
BITMAP
30
48
30
00
70
08
78
88
98
68
00
00
00
ENDCHAR
STARTCHAR aedihthong
ENCODING 230
SWIDTH 600 0
DWIDTH 6 0
BBX 6 13 0 -3
BITMAP
00
00
00
00
68
14
7c
90
90
6c
00
00
00
ENDCHAR
STARTCHAR ccedilla
ENCODING 231
SWIDTH 600 0
DWIDTH 6 0
BBX 5 13 1 -3
BITMAP
00
00
00
00
78
88
80
80
88
70
20
10
60
ENDCHAR
STARTCHAR egrave
ENCODING 232
SWIDTH 600 0
DWIDTH 6 0
BBX 5 13 1 -3
BITMAP
00
60
30
00
70
88
f8
80
88
70
00
00
00
ENDCHAR
STARTCHAR eacute
ENCODING 233
SWIDTH 600 0
DWIDTH 6 0
BBX 5 13 1 -3
BITMAP
00
18
30
00
70
88
f8
80
88
70
00
00
00
ENDCHAR
STARTCHAR ecircumflex
ENCODING 234
SWIDTH 600 0
DWIDTH 6 0
BBX 5 13 1 -3
BITMAP
00
30
48
00
70
88
f8
80
88
70
00
00
00
ENDCHAR
STARTCHAR ediaeresis
ENCODING 235
SWIDTH 600 0
DWIDTH 6 0
BBX 5 13 1 -3
BITMAP
00
48
48
00
70
88
f8
80
88
70
00
00
00
ENDCHAR
STARTCHAR igrave
ENCODING 236
SWIDTH 600 0
DWIDTH 6 0
BBX 5 13 1 -3
BITMAP
00
c0
60
00
e0
20
20
20
20
f8
00
00
00
ENDCHAR
STARTCHAR iacute
ENCODING 237
SWIDTH 600 0
DWIDTH 6 0
BBX 5 13 1 -3
BITMAP
00
18
30
00
e0
20
20
20
20
f8
00
00
00
ENDCHAR
STARTCHAR icircumflex
ENCODING 238
SWIDTH 600 0
DWIDTH 6 0
BBX 5 13 1 -3
BITMAP
00
60
90
00
e0
20
20
20
20
f8
00
00
00
ENDCHAR
STARTCHAR idiaeresis
ENCODING 239
SWIDTH 600 0
DWIDTH 6 0
BBX 5 13 1 -3
BITMAP
00
50
50
00
e0
20
20
20
20
f8
00
00
00
ENDCHAR
STARTCHAR ethIcelandic
ENCODING 240
SWIDTH 600 0
DWIDTH 6 0
BBX 5 13 1 -3
BITMAP
00
80
70
e0
10
70
88
88
88
70
00
00
00
ENDCHAR
STARTCHAR ntilde
ENCODING 241
SWIDTH 600 0
DWIDTH 6 0
BBX 5 13 1 -3
BITMAP
00
68
b0
00
b0
c8
88
88
88
88
00
00
00
ENDCHAR
STARTCHAR ograve
ENCODING 242
SWIDTH 600 0
DWIDTH 6 0
BBX 5 13 1 -3
BITMAP
00
60
30
00
70
88
88
88
88
70
00
00
00
ENDCHAR
STARTCHAR oacute
ENCODING 243
SWIDTH 600 0
DWIDTH 6 0
BBX 5 13 1 -3
BITMAP
00
18
30
00
70
88
88
88
88
70
00
00
00
ENDCHAR
STARTCHAR ocircumflex
ENCODING 244
SWIDTH 600 0
DWIDTH 6 0
BBX 5 13 1 -3
BITMAP
00
30
48
00
70
88
88
88
88
70
00
00
00
ENDCHAR
STARTCHAR otilde
ENCODING 245
SWIDTH 600 0
DWIDTH 6 0
BBX 5 13 1 -3
BITMAP
00
68
b0
00
70
88
88
88
88
70
00
00
00
ENDCHAR
STARTCHAR odiaeresis
ENCODING 246
SWIDTH 600 0
DWIDTH 6 0
BBX 5 13 1 -3
BITMAP
00
48
48
00
70
88
88
88
88
70
00
00
00
ENDCHAR
STARTCHAR DivideSign
ENCODING 247
SWIDTH 600 0
DWIDTH 6 0
BBX 5 13 1 -3
BITMAP
00
00
00
20
20
00
f8
00
20
20
00
00
00
ENDCHAR
STARTCHAR ooblique
ENCODING 248
SWIDTH 600 0
DWIDTH 6 0
BBX 5 13 1 -3
BITMAP
00
00
08
08
70
98
a8
a8
c8
70
80
80
00
ENDCHAR
STARTCHAR ugrave
ENCODING 249
SWIDTH 600 0
DWIDTH 6 0
BBX 5 13 1 -3
BITMAP
00
60
30
00
88
88
88
88
98
68
00
00
00
ENDCHAR
STARTCHAR uacute
ENCODING 250
SWIDTH 600 0
DWIDTH 6 0
BBX 5 13 1 -3
BITMAP
00
18
30
00
88
88
88
88
98
68
00
00
00
ENDCHAR
STARTCHAR ucircumflex
ENCODING 251
SWIDTH 600 0
DWIDTH 6 0
BBX 5 13 1 -3
BITMAP
00
30
48
00
88
88
88
88
98
68
00
00
00
ENDCHAR
STARTCHAR udiaeresis
ENCODING 252
SWIDTH 600 0
DWIDTH 6 0
BBX 5 13 1 -3
BITMAP
00
48
48
00
88
88
88
88
98
68
00
00
00
ENDCHAR
STARTCHAR yacute
ENCODING 253
SWIDTH 600 0
DWIDTH 6 0
BBX 5 13 1 -3
BITMAP
00
18
30
00
88
88
50
50
30
20
a0
c0
00
ENDCHAR
STARTCHAR thorn
ENCODING 254
SWIDTH 600 0
DWIDTH 6 0
BBX 6 13 0 -3
BITMAP
00
00
c0
40
58
64
44
44
64
58
40
e0
00
ENDCHAR
STARTCHAR ydiaeresis
ENCODING 255
SWIDTH 600 0
DWIDTH 6 0
BBX 5 13 1 -3
BITMAP
00
50
50
00
88
88
50
50
30
20
a0
c0
00
ENDCHAR
ENDFONT
